<svg width="24" height="24" viewBox="0 0 24 24" fill="none" xmlns="http://www.w3.org/2000/svg">
<path d="M7.57195 12.4937L8.57446 6.17488C8.17953 6.17488 7.5036 6.17488 7.5036 6.17488C7.00235 6.17488 6.3568 5.89387 6.16693 5.37743C6.10617 5.20275 5.96187 4.60277 6.7897 4.01797C7.08589 3.81292 7.27576 3.58507 7.31373 3.41039C7.3517 3.22812 7.30614 3.06863 7.17703 2.94712C6.99475 2.77244 6.6378 2.67371 6.18212 2.67371C5.41505 2.67371 4.87582 3.1142 4.82266 3.43318C4.78469 3.66862 4.96696 3.85848 5.12645 3.98C5.60492 4.33695 5.71884 4.85339 5.42264 5.33946C5.11885 5.84071 4.45811 6.16728 3.7518 6.17488C3.7518 6.17488 3.05309 6.17488 2.65816 6.17488C2.56703 6.79005 1.07846 16.2227 0.964539 16.967H6.87324C6.9264 16.6404 7.19981 14.8556 7.57195 12.4937Z" fill="#F2F2F7"/>
<path d="M0.645552 19.1542H3.06827C4.10115 19.1542 4.35178 19.6783 4.27583 20.1567C4.21507 20.5441 3.94926 20.8327 3.49358 21.0225C4.07077 21.2428 4.29862 21.5845 4.21507 22.1238C4.10875 22.7997 3.52395 23.301 2.75689 23.301H0L0.645552 19.1542ZM2.24804 20.8706C2.71891 20.8706 2.93916 20.62 2.98473 20.3238C3.0303 20.0048 2.886 19.7846 2.41512 19.7846H1.99741L1.83033 20.8706H2.24804ZM1.98982 22.6554C2.47588 22.6554 2.75689 22.4579 2.82524 22.0554C2.8784 21.7061 2.68094 21.501 2.21007 21.501H1.73919L1.55692 22.663H1.98982V22.6554Z" fill="#F2F2F7"/>
<path d="M7.6099 23.3313C6.97954 23.3769 6.67575 23.3085 6.52385 23.0351C6.18968 23.2402 5.81754 23.3465 5.42262 23.3465C4.70871 23.3465 4.45809 22.9744 4.52644 22.5643C4.55682 22.3668 4.67074 22.1769 4.85301 22.0174C5.24794 21.6757 6.22006 21.6301 6.5998 21.3719C6.63018 21.0833 6.51626 20.977 6.15931 20.977C5.7416 20.977 5.39224 21.1137 4.79225 21.5238L4.93655 20.582C5.453 20.2099 5.95425 20.0352 6.53145 20.0352C7.26814 20.0352 7.92128 20.339 7.79977 21.144L7.65547 22.0554C7.6023 22.3744 7.61749 22.4731 7.97445 22.4807L7.6099 23.3313ZM6.51626 21.8959C6.18209 22.1086 5.55932 22.0706 5.49097 22.5111C5.46059 22.7162 5.5897 22.8681 5.79476 22.8681C5.99222 22.8681 6.23525 22.7845 6.43272 22.6478C6.41753 22.5719 6.42512 22.4959 6.44791 22.3516L6.51626 21.8959Z" fill="#F2F2F7"/>
<path d="M8.78711 20.0884H10.0478L9.97949 20.5061C10.382 20.1643 10.6858 20.0352 11.0807 20.0352C11.787 20.0352 12.1136 20.4681 11.9997 21.1744L11.6731 23.2934H10.4124L10.6858 21.539C10.739 21.22 10.6402 21.0681 10.3972 21.0681C10.1997 21.0681 10.0175 21.1744 9.84278 21.4099L9.55418 23.2858H8.29346L8.78711 20.0884Z" fill="#F2F2F7"/>
<path d="M12.987 19.1542H14.2477L13.9287 21.1896L15.1363 20.0884H16.6932L15.1439 21.4554L16.3894 23.2934H14.8021L13.8452 21.8048H13.83L13.6022 23.2858H12.3414L12.987 19.1542Z" fill="#F2F2F7"/>
<path d="M17.4451 19.1542H18.8957L18.2577 23.2934H16.8071L17.4451 19.1542Z" fill="#F2F2F7"/>
<path d="M19.602 19.1542H21.6753C23.2778 19.1542 23.7411 20.3162 23.5892 21.2808C23.4449 22.2225 22.7006 23.2934 21.2956 23.2934H18.9564L19.602 19.1542ZM20.9462 22.306C21.6525 22.306 22.0399 21.9567 22.1538 21.22C22.2373 20.6732 22.0703 20.134 21.288 20.134H20.9007L20.5665 22.306H20.9462Z" fill="#F2F2F7"/>
<path d="M15.516 0.653503H9.4782L8.67316 5.76476H9.69845C10.2605 5.76476 10.7921 5.50654 11.0199 5.13439C11.0959 5.01288 11.1263 4.90655 11.1263 4.80782C11.1263 4.59517 10.982 4.43568 10.8377 4.32935C10.4427 4.03316 10.3592 3.72177 10.3592 3.50153C10.3592 3.45596 10.3592 3.41798 10.3668 3.38001C10.4503 2.84078 11.1794 2.25599 12.1439 2.25599C12.7211 2.25599 13.1616 2.3927 13.4275 2.64332C13.6629 2.86357 13.754 3.17495 13.6857 3.50153C13.6021 3.88886 13.2148 4.20784 12.9946 4.36733C12.4098 4.77744 12.4857 5.13439 12.5237 5.24072C12.6452 5.5597 13.1085 5.76476 13.4654 5.76476H15.0299C15.0299 5.76476 15.0299 5.76476 15.0299 5.77235C17.1565 5.78754 18.2957 6.76726 17.9387 9.04568C17.6046 11.1646 15.9793 12.076 14.0426 12.0912L13.2756 16.9822H14.4072C19.1843 16.9822 23.088 13.9139 23.855 9.06846C24.8044 3.05344 20.9842 0.653503 15.516 0.653503Z" fill="#F2F2F7"/>
</svg>
